<mxfile host="app.diagrams.net" modified="2022-04-16T09:38:36.095Z" agent="5.0 (Macintosh; Intel Mac OS X 10_15_7) AppleWebKit/537.36 (KHTML, like Gecko) Chrome/100.0.4896.75 Safari/537.36" etag="MPO8AmlZotDGQIvE_fZt" version="17.1.3" type="github" pages="2">
  <diagram id="MDB5B0fGtwrSBb0VRnRs" name="警情回访C4模型">
    <mxGraphModel dx="2158" dy="1033" grid="0" gridSize="10" guides="1" tooltips="1" connect="1" arrows="1" fold="1" page="0" pageScale="1" pageWidth="827" pageHeight="1169" math="0" shadow="0">
      <root>
        <mxCell id="0" />
        <mxCell id="1" parent="0" />
        <mxCell id="9556NHl2XQ8aJMo7KGd4-9" style="edgeStyle=none;curved=1;rounded=0;sketch=1;hachureGap=4;orthogonalLoop=1;jettySize=auto;html=1;fontFamily=Architects Daughter;fontSource=https%3A%2F%2Ffonts.googleapis.com%2Fcss%3Ffamily%3DArchitects%2BDaughter;fontSize=16;fontColor=#000000;endArrow=open;startSize=14;endSize=14;sourcePerimeterSpacing=8;targetPerimeterSpacing=8;" parent="1" source="9556NHl2XQ8aJMo7KGd4-1" target="9556NHl2XQ8aJMo7KGd4-8" edge="1">
          <mxGeometry relative="1" as="geometry" />
        </mxCell>
        <object placeholders="1" c4Name="SMS" c4Type="Software System" c4Description="警情回访系统" label="&lt;font style=&quot;font-size: 16px&quot;&gt;&lt;b&gt;%c4Name%&lt;/b&gt;&lt;/font&gt;&lt;div&gt;[%c4Type%]&lt;/div&gt;&lt;br&gt;&lt;div&gt;&lt;font style=&quot;font-size: 11px&quot;&gt;&lt;font&gt;%c4Description%&lt;/font&gt;&lt;/font&gt;&lt;/div&gt;" id="9556NHl2XQ8aJMo7KGd4-1">
          <mxCell style="rounded=1;whiteSpace=wrap;html=1;labelBackgroundColor=none;fillColor=#1061B0;fontColor=#000000;align=center;arcSize=10;strokeColor=#0D5091;metaEdit=1;resizable=0;points=[[0.25,0,0],[0.5,0,0],[0.75,0,0],[1,0.25,0],[1,0.5,0],[1,0.75,0],[0.75,1,0],[0.5,1,0],[0.25,1,0],[0,0.75,0],[0,0.5,0],[0,0.25,0]];sketch=1;hachureGap=4;fontFamily=Architects Daughter;fontSource=https%3A%2F%2Ffonts.googleapis.com%2Fcss%3Ffamily%3DArchitects%2BDaughter;fontSize=20;" parent="1" vertex="1">
            <mxGeometry x="183" y="391" width="240" height="120" as="geometry" />
          </mxCell>
        </object>
        <object placeholders="1" c4Name="Person name" c4Type="Person" c4Description="Description of person." label="&lt;font style=&quot;font-size: 16px&quot;&gt;&lt;b&gt;%c4Name%&lt;/b&gt;&lt;/font&gt;&lt;div&gt;[%c4Type%]&lt;/div&gt;&lt;br&gt;&lt;div&gt;&lt;font style=&quot;font-size: 11px&quot;&gt;&lt;font&gt;%c4Description%&lt;/font&gt;&lt;/font&gt;&lt;/div&gt;" id="9556NHl2XQ8aJMo7KGd4-3">
          <mxCell style="html=1;fontSize=11;dashed=0;whitespace=wrap;fillColor=#083F75;strokeColor=#06315C;fontColor=#000000;shape=mxgraph.c4.person2;align=center;metaEdit=1;points=[[0.5,0,0],[1,0.5,0],[1,0.75,0],[0.75,1,0],[0.5,1,0],[0.25,1,0],[0,0.75,0],[0,0.5,0]];resizable=0;sketch=1;hachureGap=4;fontFamily=Architects Daughter;fontSource=https%3A%2F%2Ffonts.googleapis.com%2Fcss%3Ffamily%3DArchitects%2BDaughter;" parent="1" vertex="1">
            <mxGeometry x="-289" y="308" width="200" height="180" as="geometry" />
          </mxCell>
        </object>
        <mxCell id="Ow0wWllpzu327Se37aVk-7" style="edgeStyle=none;rounded=1;sketch=1;hachureGap=4;jumpStyle=arc;orthogonalLoop=1;jettySize=auto;html=1;fontFamily=Architects Daughter;fontSource=https%3A%2F%2Ffonts.googleapis.com%2Fcss%3Ffamily%3DArchitects%2BDaughter;fontSize=13;fontColor=#000000;endArrow=open;startSize=14;endSize=14;sourcePerimeterSpacing=8;targetPerimeterSpacing=8;" edge="1" parent="1" source="9556NHl2XQ8aJMo7KGd4-5" target="Ow0wWllpzu327Se37aVk-6">
          <mxGeometry relative="1" as="geometry" />
        </mxCell>
        <mxCell id="Ow0wWllpzu327Se37aVk-8" value="&lt;p class=&quot;p1&quot; style=&quot;margin: 0px ; font-stretch: normal ; font-size: 18px ; line-height: normal ; font-family: &amp;#34;pingfang sc&amp;#34;&quot;&gt;业务数据写库&lt;/p&gt;&lt;p class=&quot;p1&quot; style=&quot;margin: 0px ; font-stretch: normal ; font-size: 18px ; line-height: normal ; font-family: &amp;#34;pingfang sc&amp;#34;&quot;&gt;tcp&lt;/p&gt;" style="edgeLabel;html=1;align=center;verticalAlign=middle;resizable=0;points=[];fontSize=13;fontFamily=Architects Daughter;fontColor=#000000;" vertex="1" connectable="0" parent="Ow0wWllpzu327Se37aVk-7">
          <mxGeometry x="-0.104" y="1" relative="1" as="geometry">
            <mxPoint as="offset" />
          </mxGeometry>
        </mxCell>
        <object placeholders="1" c4Type="区域警务合作服务端" c4Container="Container springboot" c4Technology="java" c4Description="提供区域合作的相关业务服务，完成线索的管理和分发" label="&lt;font style=&quot;font-size: 14px;&quot;&gt;&lt;b style=&quot;font-size: 14px;&quot;&gt;%c4Type%&lt;/b&gt;&lt;/font&gt;&lt;div style=&quot;font-size: 14px;&quot;&gt;&lt;b style=&quot;font-size: 14px;&quot;&gt;[%c4Container%:&amp;nbsp;%c4Technology%]&lt;/b&gt;&lt;/div&gt;&lt;b style=&quot;font-size: 14px;&quot;&gt;&lt;br style=&quot;font-size: 14px;&quot;&gt;&lt;div style=&quot;font-size: 14px;&quot;&gt;&lt;font style=&quot;font-size: 14px;&quot;&gt;&lt;font style=&quot;font-size: 14px;&quot;&gt;%c4Description%&lt;/font&gt;&lt;/font&gt;&lt;/div&gt;&lt;/b&gt;" id="9556NHl2XQ8aJMo7KGd4-5">
          <mxCell style="shape=mxgraph.c4.webBrowserContainer;whiteSpace=wrap;html=1;boundedLbl=1;rounded=0;labelBackgroundColor=none;fillColor=#118ACD;fontSize=14;fontColor=#000000;align=center;strokeColor=#0E7DAD;metaEdit=1;points=[[0.5,0,0],[1,0.25,0],[1,0.5,0],[1,0.75,0],[0.5,1,0],[0,0.75,0],[0,0.5,0],[0,0.25,0]];resizable=0;sketch=1;hachureGap=4;fontFamily=Architects Daughter;fontSource=https%3A%2F%2Ffonts.googleapis.com%2Fcss%3Ffamily%3DArchitects%2BDaughter;" parent="1" vertex="1">
            <mxGeometry x="1748" y="623" width="240" height="160" as="geometry" />
          </mxCell>
        </object>
        <mxCell id="Ow0wWllpzu327Se37aVk-4" style="edgeStyle=none;rounded=1;sketch=1;hachureGap=4;jumpStyle=arc;orthogonalLoop=1;jettySize=auto;html=1;fontFamily=Architects Daughter;fontSource=https%3A%2F%2Ffonts.googleapis.com%2Fcss%3Ffamily%3DArchitects%2BDaughter;fontSize=14;endArrow=open;startSize=14;endSize=14;sourcePerimeterSpacing=8;targetPerimeterSpacing=8;" edge="1" parent="1" source="9556NHl2XQ8aJMo7KGd4-6" target="9556NHl2XQ8aJMo7KGd4-5">
          <mxGeometry relative="1" as="geometry" />
        </mxCell>
        <mxCell id="Ow0wWllpzu327Se37aVk-5" value="&lt;p class=&quot;p1&quot; style=&quot;margin: 0px ; font-stretch: normal ; font-size: 17px ; line-height: normal ; font-family: &amp;#34;pingfang sc&amp;#34;&quot;&gt;对区域警务合作业务进行操作&lt;/p&gt;&lt;p class=&quot;p2&quot; style=&quot;margin: 0px ; font-stretch: normal ; font-size: 16px ; line-height: normal ; font-family: &amp;#34;pingfang sc&amp;#34;&quot;&gt;http/json&lt;/p&gt;" style="edgeLabel;html=1;align=center;verticalAlign=middle;resizable=0;points=[];fontSize=14;fontFamily=Architects Daughter;" vertex="1" connectable="0" parent="Ow0wWllpzu327Se37aVk-4">
          <mxGeometry x="-0.1111" relative="1" as="geometry">
            <mxPoint as="offset" />
          </mxGeometry>
        </mxCell>
        <object placeholders="1" c4Type="区域警务合作web端" c4Container="Container springboot" c4Technology="JAVA,VUE2.6" c4Description="区域警务合作前端代码统一打包入springboot封装的包中，注册入服务注册平台" label="&lt;font style=&quot;font-size: 14px;&quot;&gt;&lt;b style=&quot;font-size: 14px;&quot;&gt;%c4Type%&lt;/b&gt;&lt;/font&gt;&lt;div style=&quot;font-size: 14px;&quot;&gt;&lt;b style=&quot;font-size: 14px;&quot;&gt;[%c4Container%:&amp;nbsp;%c4Technology%]&lt;/b&gt;&lt;/div&gt;&lt;b style=&quot;font-size: 14px;&quot;&gt;&lt;br style=&quot;font-size: 14px;&quot;&gt;&lt;div style=&quot;font-size: 14px;&quot;&gt;&lt;font style=&quot;font-size: 14px;&quot;&gt;&lt;font style=&quot;font-size: 14px;&quot;&gt;%c4Description%&lt;/font&gt;&lt;/font&gt;&lt;/div&gt;&lt;/b&gt;" id="9556NHl2XQ8aJMo7KGd4-6">
          <mxCell style="shape=mxgraph.c4.webBrowserContainer;whiteSpace=wrap;html=1;boundedLbl=1;rounded=0;labelBackgroundColor=none;fillColor=#118ACD;fontSize=14;fontColor=#000000;align=center;strokeColor=#0E7DAD;metaEdit=1;points=[[0.5,0,0],[1,0.25,0],[1,0.5,0],[1,0.75,0],[0.5,1,0],[0,0.75,0],[0,0.5,0],[0,0.25,0]];resizable=0;sketch=1;hachureGap=4;fontFamily=Architects Daughter;fontSource=https%3A%2F%2Ffonts.googleapis.com%2Fcss%3Ffamily%3DArchitects%2BDaughter;" parent="1" vertex="1">
            <mxGeometry x="1748" y="303" width="240" height="160" as="geometry" />
          </mxCell>
        </object>
        <object placeholders="1" c4Name="VCS" c4Type="Software System" c4Description="处境可视化系统" label="&lt;font style=&quot;font-size: 16px&quot;&gt;&lt;b&gt;%c4Name%&lt;/b&gt;&lt;/font&gt;&lt;div&gt;[%c4Type%]&lt;/div&gt;&lt;br&gt;&lt;div&gt;&lt;font style=&quot;font-size: 11px&quot;&gt;&lt;font&gt;%c4Description%&lt;/font&gt;&lt;/font&gt;&lt;/div&gt;" id="9556NHl2XQ8aJMo7KGd4-8">
          <mxCell style="rounded=1;whiteSpace=wrap;html=1;labelBackgroundColor=none;fillColor=#1061B0;fontColor=#000000;align=center;arcSize=10;strokeColor=#0D5091;metaEdit=1;resizable=0;points=[[0.25,0,0],[0.5,0,0],[0.75,0,0],[1,0.25,0],[1,0.5,0],[1,0.75,0],[0.75,1,0],[0.5,1,0],[0.25,1,0],[0,0.75,0],[0,0.5,0],[0,0.25,0]];sketch=1;hachureGap=4;fontFamily=Architects Daughter;fontSource=https%3A%2F%2Ffonts.googleapis.com%2Fcss%3Ffamily%3DArchitects%2BDaughter;fontSize=20;" parent="1" vertex="1">
            <mxGeometry x="512" y="391" width="240" height="120" as="geometry" />
          </mxCell>
        </object>
        <mxCell id="Ow0wWllpzu327Se37aVk-1" value="Text" style="text;html=1;align=center;verticalAlign=middle;resizable=0;points=[];autosize=1;strokeColor=none;fillColor=none;sketch=1;hachureGap=4;fontFamily=Architects Daughter;fontSource=https%3A%2F%2Ffonts.googleapis.com%2Fcss%3Ffamily%3DArchitects%2BDaughter;fontSize=15;" vertex="1" parent="1">
          <mxGeometry x="447" y="334" width="40" height="20" as="geometry" />
        </mxCell>
        <mxCell id="Ow0wWllpzu327Se37aVk-3" value="&lt;font style=&quot;font-size: 25px&quot;&gt;区域警务合作一体化指挥信息平台----容器图&lt;/font&gt;" style="text;html=1;align=center;verticalAlign=middle;resizable=0;points=[];autosize=1;strokeColor=none;fillColor=none;sketch=1;hachureGap=4;fontFamily=Architects Daughter;fontSource=https%3A%2F%2Ffonts.googleapis.com%2Fcss%3Ffamily%3DArchitects%2BDaughter;fontSize=15;" vertex="1" parent="1">
          <mxGeometry x="1680" y="67" width="491" height="25" as="geometry" />
        </mxCell>
        <object placeholders="1" c4Type="警务合作数据库" c4Container="Container oracle" c4Technology="Oracle Database 12" c4Description="区域警务合作数据库主要存储区域警务合作信息" label="&lt;font style=&quot;font-size: 13px;&quot;&gt;&lt;b style=&quot;font-size: 13px;&quot;&gt;%c4Type%&lt;/b&gt;&lt;/font&gt;&lt;div style=&quot;font-size: 13px;&quot;&gt;&lt;b style=&quot;font-size: 13px;&quot;&gt;[%c4Container%:&amp;nbsp;%c4Technology%]&lt;/b&gt;&lt;/div&gt;&lt;b style=&quot;font-size: 13px;&quot;&gt;&lt;br style=&quot;font-size: 13px;&quot;&gt;&lt;div style=&quot;font-size: 13px;&quot;&gt;&lt;font style=&quot;font-size: 13px;&quot;&gt;&lt;font style=&quot;font-size: 13px;&quot;&gt;%c4Description%&lt;/font&gt;&lt;/font&gt;&lt;/div&gt;&lt;/b&gt;" id="Ow0wWllpzu327Se37aVk-6">
          <mxCell style="shape=cylinder3;size=15;whiteSpace=wrap;html=1;boundedLbl=1;rounded=0;labelBackgroundColor=none;fillColor=#23A2D9;fontSize=13;fontColor=#000000;align=center;strokeColor=#0E7DAD;metaEdit=1;points=[[0.5,0,0],[1,0.25,0],[1,0.5,0],[1,0.75,0],[0.5,1,0],[0,0.75,0],[0,0.5,0],[0,0.25,0]];resizable=0;sketch=1;hachureGap=4;fontFamily=Architects Daughter;fontSource=https%3A%2F%2Ffonts.googleapis.com%2Fcss%3Ffamily%3DArchitects%2BDaughter;" vertex="1" parent="1">
            <mxGeometry x="1752" y="957" width="240" height="120" as="geometry" />
          </mxCell>
        </object>
        <object placeholders="1" c4Type="情报接报适配服务" c4Container="Container springboot" c4Technology="java" c4Description="通过读取情报接报的数据库内容，完成接收情报接报数据的推送，推送到区域警务合作系统" label="&lt;font style=&quot;font-size: 14px;&quot;&gt;&lt;b style=&quot;font-size: 14px;&quot;&gt;%c4Type%&lt;/b&gt;&lt;/font&gt;&lt;div style=&quot;font-size: 14px;&quot;&gt;&lt;b style=&quot;font-size: 14px;&quot;&gt;[%c4Container%:&amp;nbsp;%c4Technology%]&lt;/b&gt;&lt;/div&gt;&lt;b style=&quot;font-size: 14px;&quot;&gt;&lt;br style=&quot;font-size: 14px;&quot;&gt;&lt;div style=&quot;font-size: 14px;&quot;&gt;&lt;font style=&quot;font-size: 14px;&quot;&gt;&lt;font style=&quot;font-size: 14px;&quot;&gt;%c4Description%&lt;/font&gt;&lt;/font&gt;&lt;/div&gt;&lt;/b&gt;" id="Ow0wWllpzu327Se37aVk-9">
          <mxCell style="shape=mxgraph.c4.webBrowserContainer;whiteSpace=wrap;html=1;boundedLbl=1;rounded=0;labelBackgroundColor=none;fillColor=#118ACD;fontSize=14;fontColor=#000000;align=center;strokeColor=#0E7DAD;metaEdit=1;points=[[0.5,0,0],[1,0.25,0],[1,0.5,0],[1,0.75,0],[0.5,1,0],[0,0.75,0],[0,0.5,0],[0,0.25,0]];resizable=0;sketch=1;hachureGap=4;fontFamily=Architects Daughter;fontSource=https%3A%2F%2Ffonts.googleapis.com%2Fcss%3Ffamily%3DArchitects%2BDaughter;" vertex="1" parent="1">
            <mxGeometry x="1327" y="813" width="240" height="160" as="geometry" />
          </mxCell>
        </object>
        <object placeholders="1" c4Name="NLP" c4Type="Software System" c4Description="提供对文本，对附件的内容进行提取和结构的能力" label="&lt;font style=&quot;font-size: 16px&quot;&gt;&lt;b&gt;%c4Name%&lt;/b&gt;&lt;/font&gt;&lt;div&gt;[%c4Type%]&lt;/div&gt;&lt;br&gt;&lt;div&gt;&lt;font style=&quot;font-size: 11px&quot;&gt;&lt;font&gt;%c4Description%&lt;/font&gt;&lt;/font&gt;&lt;/div&gt;" id="Ow0wWllpzu327Se37aVk-13">
          <mxCell style="rounded=1;whiteSpace=wrap;html=1;labelBackgroundColor=none;fillColor=#8C8496;fontColor=#000000;align=center;arcSize=10;strokeColor=#736782;metaEdit=1;resizable=0;points=[[0.25,0,0],[0.5,0,0],[0.75,0,0],[1,0.25,0],[1,0.5,0],[1,0.75,0],[0.75,1,0],[0.5,1,0],[0.25,1,0],[0,0.75,0],[0,0.5,0],[0,0.25,0]];sketch=1;hachureGap=4;fontFamily=Architects Daughter;fontSource=https%3A%2F%2Ffonts.googleapis.com%2Fcss%3Ffamily%3DArchitects%2BDaughter;fontSize=13;" vertex="1" parent="1">
            <mxGeometry x="2354" y="563" width="240" height="120" as="geometry" />
          </mxCell>
        </object>
        <object placeholders="1" c4Name="SMP" c4Type="Software System" c4Description="对组织机构，人员，岗位，应用，数据结构等基础资源,字典等基础信息进行管理，并通过API提供对外服务" label="&lt;font style=&quot;font-size: 16px&quot;&gt;&lt;b&gt;%c4Name%&lt;/b&gt;&lt;/font&gt;&lt;div&gt;[%c4Type%]&lt;/div&gt;&lt;br&gt;&lt;div&gt;&lt;font style=&quot;font-size: 11px&quot;&gt;&lt;font&gt;%c4Description%&lt;/font&gt;&lt;/font&gt;&lt;/div&gt;" id="Ow0wWllpzu327Se37aVk-14">
          <mxCell style="rounded=1;whiteSpace=wrap;html=1;labelBackgroundColor=none;fillColor=#1061B0;fontColor=#000000;align=center;arcSize=10;strokeColor=#0D5091;metaEdit=1;resizable=0;points=[[0.25,0,0],[0.5,0,0],[0.75,0,0],[1,0.25,0],[1,0.5,0],[1,0.75,0],[0.75,1,0],[0.5,1,0],[0.25,1,0],[0,0.75,0],[0,0.5,0],[0,0.25,0]];sketch=1;hachureGap=4;fontFamily=Architects Daughter;fontSource=https%3A%2F%2Ffonts.googleapis.com%2Fcss%3Ffamily%3DArchitects%2BDaughter;fontSize=13;" vertex="1" parent="1">
            <mxGeometry x="1055" y="331" width="240" height="120" as="geometry" />
          </mxCell>
        </object>
        <object placeholders="1" c4Name="单点登录" c4Type="Software System" c4Description="对接smp的人员账号机构信息，完成人员登录验证和实现单点登录，完成公安pki对接" label="&lt;font style=&quot;font-size: 16px&quot;&gt;&lt;b&gt;%c4Name%&lt;/b&gt;&lt;/font&gt;&lt;div&gt;[%c4Type%]&lt;/div&gt;&lt;br&gt;&lt;div&gt;&lt;font style=&quot;font-size: 11px&quot;&gt;&lt;font&gt;%c4Description%&lt;/font&gt;&lt;/font&gt;&lt;/div&gt;" id="Ow0wWllpzu327Se37aVk-15">
          <mxCell style="rounded=1;whiteSpace=wrap;html=1;labelBackgroundColor=none;fillColor=#1061B0;fontColor=#000000;align=center;arcSize=10;strokeColor=#0D5091;metaEdit=1;resizable=0;points=[[0.25,0,0],[0.5,0,0],[0.75,0,0],[1,0.25,0],[1,0.5,0],[1,0.75,0],[0.75,1,0],[0.5,1,0],[0.25,1,0],[0,0.75,0],[0,0.5,0],[0,0.25,0]];sketch=1;hachureGap=4;fontFamily=Architects Daughter;fontSource=https%3A%2F%2Ffonts.googleapis.com%2Fcss%3Ffamily%3DArchitects%2BDaughter;fontSize=13;" vertex="1" parent="1">
            <mxGeometry x="1048" y="579" width="240" height="120" as="geometry" />
          </mxCell>
        </object>
        <object placeholders="1" c4Type="情报接报数据库" c4Container="Container oracle" c4Technology="Oracle Database 12" c4Description="情报接报数据库主要存储情报接报信息" label="&lt;font style=&quot;font-size: 13px;&quot;&gt;&lt;b style=&quot;font-size: 13px;&quot;&gt;%c4Type%&lt;/b&gt;&lt;/font&gt;&lt;div style=&quot;font-size: 13px;&quot;&gt;&lt;b style=&quot;font-size: 13px;&quot;&gt;[%c4Container%:&amp;nbsp;%c4Technology%]&lt;/b&gt;&lt;/div&gt;&lt;b style=&quot;font-size: 13px;&quot;&gt;&lt;br style=&quot;font-size: 13px;&quot;&gt;&lt;div style=&quot;font-size: 13px;&quot;&gt;&lt;font style=&quot;font-size: 13px;&quot;&gt;&lt;font style=&quot;font-size: 13px;&quot;&gt;%c4Description%&lt;/font&gt;&lt;/font&gt;&lt;/div&gt;&lt;/b&gt;" id="Ow0wWllpzu327Se37aVk-16">
          <mxCell style="shape=cylinder3;size=15;whiteSpace=wrap;html=1;boundedLbl=1;rounded=0;labelBackgroundColor=none;fillColor=#e1d5e7;fontSize=13;align=center;strokeColor=#9673a6;metaEdit=1;points=[[0.5,0,0],[1,0.25,0],[1,0.5,0],[1,0.75,0],[0.5,1,0],[0,0.75,0],[0,0.5,0],[0,0.25,0]];resizable=0;sketch=1;hachureGap=4;fontFamily=Architects Daughter;fontSource=https%3A%2F%2Ffonts.googleapis.com%2Fcss%3Ffamily%3DArchitects%2BDaughter;" vertex="1" parent="1">
            <mxGeometry x="1045" y="973" width="240" height="120" as="geometry" />
          </mxCell>
        </object>
      </root>
    </mxGraphModel>
  </diagram>
  <diagram id="riQthwZXy0yVwxQMupO3" name="区域警务合作一体化指挥信息平台-流程图">
    <mxGraphModel dx="2743" dy="1777" grid="0" gridSize="10" guides="1" tooltips="1" connect="1" arrows="1" fold="1" page="0" pageScale="1" pageWidth="827" pageHeight="1169" math="0" shadow="0">
      <root>
        <mxCell id="krPjROnrd2UijMS6lK_2-0" />
        <mxCell id="krPjROnrd2UijMS6lK_2-1" parent="krPjROnrd2UijMS6lK_2-0" />
        <mxCell id="krPjROnrd2UijMS6lK_2-2" value="&lt;font style=&quot;font-size: 31px&quot;&gt;区域情况发送各省流程图&lt;/font&gt;" style="swimlane;html=1;childLayout=stackLayout;startSize=59;rounded=0;shadow=0;labelBackgroundColor=none;strokeWidth=1;fontFamily=Verdana;fontSize=19;align=center;sketch=1;hachureGap=4;fontSource=https%3A%2F%2Ffonts.googleapis.com%2Fcss%3Ffamily%3DArchitects%2BDaughter;fillColor=#B0C7FC;strokeColor=#6c8ebf;swimlaneFillColor=none;" vertex="1" parent="krPjROnrd2UijMS6lK_2-1">
          <mxGeometry x="-151" y="-278" width="512" height="1155" as="geometry">
            <mxRectangle x="-167" y="-38" width="313" height="20" as="alternateBounds" />
          </mxGeometry>
        </mxCell>
        <mxCell id="krPjROnrd2UijMS6lK_2-3" value="情况接报（外）" style="swimlane;html=1;startSize=37;sketch=1;hachureGap=4;fontFamily=Architects Daughter;fontSource=https%3A%2F%2Ffonts.googleapis.com%2Fcss%3Ffamily%3DArchitects%2BDaughter;fontSize=20;" vertex="1" parent="krPjROnrd2UijMS6lK_2-2">
          <mxGeometry y="59" width="160" height="1096" as="geometry" />
        </mxCell>
        <mxCell id="krPjROnrd2UijMS6lK_2-47" value="&lt;font style=&quot;font-size: 19px&quot;&gt;区域事件&lt;/font&gt;" style="strokeWidth=2;html=1;shape=mxgraph.flowchart.stored_data;whiteSpace=wrap;sketch=1;hachureGap=4;fontFamily=Architects Daughter;fontSource=https%3A%2F%2Ffonts.googleapis.com%2Fcss%3Ffamily%3DArchitects%2BDaughter;fontSize=31;fillColor=#B0C7FC;" vertex="1" parent="krPjROnrd2UijMS6lK_2-3">
          <mxGeometry x="22" y="160" width="100" height="60" as="geometry" />
        </mxCell>
        <mxCell id="krPjROnrd2UijMS6lK_2-99" value="状态&lt;br&gt;已反馈" style="strokeWidth=2;html=1;shape=mxgraph.flowchart.terminator;whiteSpace=wrap;sketch=1;hachureGap=4;fontFamily=Architects Daughter;fontSource=https%3A%2F%2Ffonts.googleapis.com%2Fcss%3Ffamily%3DArchitects%2BDaughter;fontSize=15;fillColor=#B0C7FC;" vertex="1" parent="krPjROnrd2UijMS6lK_2-3">
          <mxGeometry x="22" y="850" width="100" height="60" as="geometry" />
        </mxCell>
        <mxCell id="krPjROnrd2UijMS6lK_2-7" style="edgeStyle=orthogonalEdgeStyle;rounded=1;html=1;labelBackgroundColor=none;startArrow=none;startFill=0;startSize=5;endArrow=classicThin;endFill=1;endSize=5;jettySize=auto;orthogonalLoop=1;strokeWidth=1;fontFamily=Verdana;fontSize=8;sketch=1;hachureGap=4;fontSource=https%3A%2F%2Ffonts.googleapis.com%2Fcss%3Ffamily%3DArchitects%2BDaughter;exitX=0.93;exitY=0.5;exitDx=0;exitDy=0;exitPerimeter=0;" edge="1" parent="krPjROnrd2UijMS6lK_2-2" source="krPjROnrd2UijMS6lK_2-47" target="krPjROnrd2UijMS6lK_2-23">
          <mxGeometry relative="1" as="geometry">
            <mxPoint x="120" y="154" as="sourcePoint" />
          </mxGeometry>
        </mxCell>
        <mxCell id="krPjROnrd2UijMS6lK_2-22" value="区域" style="swimlane;html=1;startSize=37;sketch=1;hachureGap=4;fontFamily=Architects Daughter;fontSource=https%3A%2F%2Ffonts.googleapis.com%2Fcss%3Ffamily%3DArchitects%2BDaughter;fontSize=20;" vertex="1" parent="krPjROnrd2UijMS6lK_2-2">
          <mxGeometry x="160" y="59" width="160" height="1096" as="geometry" />
        </mxCell>
        <mxCell id="krPjROnrd2UijMS6lK_2-50" style="edgeStyle=none;curved=1;rounded=0;sketch=1;hachureGap=4;orthogonalLoop=1;jettySize=auto;html=1;entryX=0.5;entryY=1;entryDx=0;entryDy=0;entryPerimeter=0;fontFamily=Architects Daughter;fontSource=https%3A%2F%2Ffonts.googleapis.com%2Fcss%3Ffamily%3DArchitects%2BDaughter;fontSize=15;endArrow=open;startSize=14;endSize=14;sourcePerimeterSpacing=8;targetPerimeterSpacing=8;" edge="1" parent="krPjROnrd2UijMS6lK_2-22" source="krPjROnrd2UijMS6lK_2-23" target="krPjROnrd2UijMS6lK_2-49">
          <mxGeometry relative="1" as="geometry" />
        </mxCell>
        <mxCell id="krPjROnrd2UijMS6lK_2-53" value="删除" style="edgeLabel;html=1;align=center;verticalAlign=middle;resizable=0;points=[];fontSize=15;fontFamily=Architects Daughter;" vertex="1" connectable="0" parent="krPjROnrd2UijMS6lK_2-50">
          <mxGeometry x="-0.3528" y="-2" relative="1" as="geometry">
            <mxPoint as="offset" />
          </mxGeometry>
        </mxCell>
        <mxCell id="krPjROnrd2UijMS6lK_2-52" style="edgeStyle=none;curved=1;rounded=0;sketch=1;hachureGap=4;orthogonalLoop=1;jettySize=auto;html=1;entryX=0.5;entryY=0;entryDx=0;entryDy=0;fontFamily=Architects Daughter;fontSource=https%3A%2F%2Ffonts.googleapis.com%2Fcss%3Ffamily%3DArchitects%2BDaughter;fontSize=15;endArrow=open;startSize=14;endSize=14;sourcePerimeterSpacing=8;targetPerimeterSpacing=8;" edge="1" parent="krPjROnrd2UijMS6lK_2-22" source="krPjROnrd2UijMS6lK_2-23" target="krPjROnrd2UijMS6lK_2-51">
          <mxGeometry relative="1" as="geometry" />
        </mxCell>
        <mxCell id="krPjROnrd2UijMS6lK_2-54" value="接收" style="edgeLabel;html=1;align=center;verticalAlign=middle;resizable=0;points=[];fontSize=15;fontFamily=Architects Daughter;" vertex="1" connectable="0" parent="krPjROnrd2UijMS6lK_2-52">
          <mxGeometry x="-0.0654" y="2" relative="1" as="geometry">
            <mxPoint as="offset" />
          </mxGeometry>
        </mxCell>
        <mxCell id="krPjROnrd2UijMS6lK_2-23" value="&lt;font style=&quot;font-size: 15px&quot;&gt;状态&lt;br&gt;待接收&lt;/font&gt;" style="rounded=1;whiteSpace=wrap;html=1;shadow=0;labelBackgroundColor=none;strokeWidth=1;fontFamily=Verdana;fontSize=8;align=center;sketch=1;hachureGap=4;fontSource=https%3A%2F%2Ffonts.googleapis.com%2Fcss%3Ffamily%3DArchitects%2BDaughter;" vertex="1" parent="krPjROnrd2UijMS6lK_2-22">
          <mxGeometry x="30" y="194" width="100" height="60" as="geometry" />
        </mxCell>
        <mxCell id="krPjROnrd2UijMS6lK_2-49" value="状态&lt;br&gt;已删除" style="strokeWidth=2;html=1;shape=mxgraph.flowchart.terminator;whiteSpace=wrap;sketch=1;hachureGap=4;fontFamily=Architects Daughter;fontSource=https%3A%2F%2Ffonts.googleapis.com%2Fcss%3Ffamily%3DArchitects%2BDaughter;fontSize=15;fillColor=#f8cecc;strokeColor=#b85450;" vertex="1" parent="krPjROnrd2UijMS6lK_2-22">
          <mxGeometry x="30" y="58" width="100" height="60" as="geometry" />
        </mxCell>
        <mxCell id="krPjROnrd2UijMS6lK_2-56" style="edgeStyle=none;curved=1;rounded=0;sketch=1;hachureGap=4;orthogonalLoop=1;jettySize=auto;html=1;entryX=0.5;entryY=0;entryDx=0;entryDy=0;fontFamily=Architects Daughter;fontSource=https%3A%2F%2Ffonts.googleapis.com%2Fcss%3Ffamily%3DArchitects%2BDaughter;fontSize=15;endArrow=open;startSize=14;endSize=14;sourcePerimeterSpacing=8;targetPerimeterSpacing=8;" edge="1" parent="krPjROnrd2UijMS6lK_2-22" source="krPjROnrd2UijMS6lK_2-51" target="krPjROnrd2UijMS6lK_2-55">
          <mxGeometry relative="1" as="geometry" />
        </mxCell>
        <mxCell id="krPjROnrd2UijMS6lK_2-57" value="情况分类" style="edgeLabel;html=1;align=center;verticalAlign=middle;resizable=0;points=[];fontSize=15;fontFamily=Architects Daughter;" vertex="1" connectable="0" parent="krPjROnrd2UijMS6lK_2-56">
          <mxGeometry x="-0.146" y="2" relative="1" as="geometry">
            <mxPoint as="offset" />
          </mxGeometry>
        </mxCell>
        <mxCell id="krPjROnrd2UijMS6lK_2-51" value="&lt;font style=&quot;font-size: 15px&quot;&gt;状态&lt;br&gt;未办理&lt;br&gt;&lt;/font&gt;" style="rounded=1;whiteSpace=wrap;html=1;shadow=0;labelBackgroundColor=none;strokeWidth=1;fontFamily=Verdana;fontSize=8;align=center;sketch=1;hachureGap=4;fontSource=https%3A%2F%2Ffonts.googleapis.com%2Fcss%3Ffamily%3DArchitects%2BDaughter;" vertex="1" parent="krPjROnrd2UijMS6lK_2-22">
          <mxGeometry x="30" y="330" width="100" height="60" as="geometry" />
        </mxCell>
        <mxCell id="krPjROnrd2UijMS6lK_2-75" style="edgeStyle=none;curved=1;rounded=0;sketch=1;hachureGap=4;orthogonalLoop=1;jettySize=auto;html=1;fontFamily=Architects Daughter;fontSource=https%3A%2F%2Ffonts.googleapis.com%2Fcss%3Ffamily%3DArchitects%2BDaughter;fontSize=15;endArrow=open;startSize=14;endSize=14;sourcePerimeterSpacing=8;targetPerimeterSpacing=8;" edge="1" parent="krPjROnrd2UijMS6lK_2-22" source="krPjROnrd2UijMS6lK_2-55" target="krPjROnrd2UijMS6lK_2-74">
          <mxGeometry relative="1" as="geometry" />
        </mxCell>
        <mxCell id="krPjROnrd2UijMS6lK_2-76" value="数据结构化治理" style="edgeLabel;html=1;align=center;verticalAlign=middle;resizable=0;points=[];fontSize=15;fontFamily=Architects Daughter;" vertex="1" connectable="0" parent="krPjROnrd2UijMS6lK_2-75">
          <mxGeometry x="-0.1852" relative="1" as="geometry">
            <mxPoint as="offset" />
          </mxGeometry>
        </mxCell>
        <mxCell id="krPjROnrd2UijMS6lK_2-55" value="&lt;font style=&quot;font-size: 15px&quot;&gt;状态&lt;br&gt;未办理&lt;br&gt;&lt;/font&gt;" style="rounded=1;whiteSpace=wrap;html=1;shadow=0;labelBackgroundColor=none;strokeWidth=1;fontFamily=Verdana;fontSize=8;align=center;sketch=1;hachureGap=4;fontSource=https%3A%2F%2Ffonts.googleapis.com%2Fcss%3Ffamily%3DArchitects%2BDaughter;" vertex="1" parent="krPjROnrd2UijMS6lK_2-22">
          <mxGeometry x="30" y="453" width="100" height="60" as="geometry" />
        </mxCell>
        <mxCell id="krPjROnrd2UijMS6lK_2-78" style="edgeStyle=none;curved=1;rounded=0;sketch=1;hachureGap=4;orthogonalLoop=1;jettySize=auto;html=1;entryX=0.5;entryY=0;entryDx=0;entryDy=0;fontFamily=Architects Daughter;fontSource=https%3A%2F%2Ffonts.googleapis.com%2Fcss%3Ffamily%3DArchitects%2BDaughter;fontSize=15;endArrow=open;startSize=14;endSize=14;sourcePerimeterSpacing=8;targetPerimeterSpacing=8;" edge="1" parent="krPjROnrd2UijMS6lK_2-22" source="krPjROnrd2UijMS6lK_2-74" target="krPjROnrd2UijMS6lK_2-77">
          <mxGeometry relative="1" as="geometry" />
        </mxCell>
        <mxCell id="krPjROnrd2UijMS6lK_2-79" value="发送涉及省份" style="edgeLabel;html=1;align=center;verticalAlign=middle;resizable=0;points=[];fontSize=15;fontFamily=Architects Daughter;" vertex="1" connectable="0" parent="krPjROnrd2UijMS6lK_2-78">
          <mxGeometry x="0.0958" y="2" relative="1" as="geometry">
            <mxPoint as="offset" />
          </mxGeometry>
        </mxCell>
        <mxCell id="krPjROnrd2UijMS6lK_2-74" value="&lt;font style=&quot;font-size: 15px&quot;&gt;状态&lt;br&gt;未办理&lt;br&gt;&lt;/font&gt;" style="rounded=1;whiteSpace=wrap;html=1;shadow=0;labelBackgroundColor=none;strokeWidth=1;fontFamily=Verdana;fontSize=8;align=center;sketch=1;hachureGap=4;fontSource=https%3A%2F%2Ffonts.googleapis.com%2Fcss%3Ffamily%3DArchitects%2BDaughter;" vertex="1" parent="krPjROnrd2UijMS6lK_2-22">
          <mxGeometry x="30" y="589" width="100" height="60" as="geometry" />
        </mxCell>
        <mxCell id="krPjROnrd2UijMS6lK_2-93" style="edgeStyle=none;rounded=1;sketch=1;hachureGap=4;orthogonalLoop=1;jettySize=auto;html=1;fontFamily=Architects Daughter;fontSource=https%3A%2F%2Ffonts.googleapis.com%2Fcss%3Ffamily%3DArchitects%2BDaughter;fontSize=15;endArrow=open;startSize=14;endSize=14;sourcePerimeterSpacing=8;targetPerimeterSpacing=8;entryX=0.11;entryY=0.11;entryDx=0;entryDy=0;entryPerimeter=0;" edge="1" parent="krPjROnrd2UijMS6lK_2-22" source="krPjROnrd2UijMS6lK_2-77" target="krPjROnrd2UijMS6lK_2-94">
          <mxGeometry relative="1" as="geometry">
            <Array as="points">
              <mxPoint x="15" y="822" />
              <mxPoint x="15" y="990" />
            </Array>
          </mxGeometry>
        </mxCell>
        <mxCell id="krPjROnrd2UijMS6lK_2-95" value="办结" style="edgeLabel;html=1;align=center;verticalAlign=middle;resizable=0;points=[];fontSize=15;fontFamily=Architects Daughter;" vertex="1" connectable="0" parent="krPjROnrd2UijMS6lK_2-93">
          <mxGeometry x="-0.129" y="-1" relative="1" as="geometry">
            <mxPoint x="20" y="-78" as="offset" />
          </mxGeometry>
        </mxCell>
        <mxCell id="krPjROnrd2UijMS6lK_2-77" value="&lt;font style=&quot;font-size: 15px&quot;&gt;状态&lt;br&gt;已办理&lt;br&gt;&lt;/font&gt;" style="rounded=1;whiteSpace=wrap;html=1;shadow=0;labelBackgroundColor=none;strokeWidth=1;fontFamily=Verdana;fontSize=8;align=center;sketch=1;hachureGap=4;fontSource=https%3A%2F%2Ffonts.googleapis.com%2Fcss%3Ffamily%3DArchitects%2BDaughter;" vertex="1" parent="krPjROnrd2UijMS6lK_2-22">
          <mxGeometry x="30" y="715" width="100" height="60" as="geometry" />
        </mxCell>
        <mxCell id="krPjROnrd2UijMS6lK_2-97" style="edgeStyle=none;rounded=1;sketch=1;hachureGap=4;orthogonalLoop=1;jettySize=auto;html=1;fontFamily=Architects Daughter;fontSource=https%3A%2F%2Ffonts.googleapis.com%2Fcss%3Ffamily%3DArchitects%2BDaughter;fontSize=15;endArrow=open;startSize=14;endSize=14;sourcePerimeterSpacing=8;targetPerimeterSpacing=8;entryX=0.629;entryY=0.037;entryDx=0;entryDy=0;entryPerimeter=0;" edge="1" parent="krPjROnrd2UijMS6lK_2-22" source="krPjROnrd2UijMS6lK_2-87" target="krPjROnrd2UijMS6lK_2-94">
          <mxGeometry relative="1" as="geometry" />
        </mxCell>
        <mxCell id="krPjROnrd2UijMS6lK_2-98" value="处理" style="edgeLabel;html=1;align=center;verticalAlign=middle;resizable=0;points=[];fontSize=15;fontFamily=Architects Daughter;" vertex="1" connectable="0" parent="krPjROnrd2UijMS6lK_2-97">
          <mxGeometry x="-0.1732" y="1" relative="1" as="geometry">
            <mxPoint as="offset" />
          </mxGeometry>
        </mxCell>
        <mxCell id="krPjROnrd2UijMS6lK_2-87" value="状态&lt;br&gt;已反馈" style="strokeWidth=2;html=1;shape=mxgraph.flowchart.terminator;whiteSpace=wrap;sketch=1;hachureGap=4;fontFamily=Architects Daughter;fontSource=https%3A%2F%2Ffonts.googleapis.com%2Fcss%3Ffamily%3DArchitects%2BDaughter;fontSize=15;fillColor=#B0C7FC;" vertex="1" parent="krPjROnrd2UijMS6lK_2-22">
          <mxGeometry x="44" y="853" width="100" height="60" as="geometry" />
        </mxCell>
        <mxCell id="krPjROnrd2UijMS6lK_2-94" value="状态&lt;br&gt;已办结" style="strokeWidth=2;html=1;shape=mxgraph.flowchart.terminator;whiteSpace=wrap;sketch=1;hachureGap=4;fontFamily=Architects Daughter;fontSource=https%3A%2F%2Ffonts.googleapis.com%2Fcss%3Ffamily%3DArchitects%2BDaughter;fontSize=15;fillColor=#B0C7FC;" vertex="1" parent="krPjROnrd2UijMS6lK_2-22">
          <mxGeometry x="30" y="1003" width="100" height="60" as="geometry" />
        </mxCell>
        <mxCell id="krPjROnrd2UijMS6lK_2-24" value="各省市" style="swimlane;html=1;startSize=37;sketch=1;hachureGap=4;fontFamily=Architects Daughter;fontSource=https%3A%2F%2Ffonts.googleapis.com%2Fcss%3Ffamily%3DArchitects%2BDaughter;fontSize=20;" vertex="1" parent="krPjROnrd2UijMS6lK_2-2">
          <mxGeometry x="320" y="59" width="191" height="1096" as="geometry" />
        </mxCell>
        <mxCell id="krPjROnrd2UijMS6lK_2-85" style="edgeStyle=none;rounded=1;sketch=1;hachureGap=4;orthogonalLoop=1;jettySize=auto;html=1;fontFamily=Architects Daughter;fontSource=https%3A%2F%2Ffonts.googleapis.com%2Fcss%3Ffamily%3DArchitects%2BDaughter;fontSize=15;endArrow=open;startSize=14;endSize=14;sourcePerimeterSpacing=8;targetPerimeterSpacing=8;" edge="1" parent="krPjROnrd2UijMS6lK_2-24" source="krPjROnrd2UijMS6lK_2-80" target="krPjROnrd2UijMS6lK_2-84">
          <mxGeometry relative="1" as="geometry" />
        </mxCell>
        <mxCell id="krPjROnrd2UijMS6lK_2-86" value="接收" style="edgeLabel;html=1;align=center;verticalAlign=middle;resizable=0;points=[];fontSize=15;fontFamily=Architects Daughter;" vertex="1" connectable="0" parent="krPjROnrd2UijMS6lK_2-85">
          <mxGeometry x="-0.2313" y="3" relative="1" as="geometry">
            <mxPoint as="offset" />
          </mxGeometry>
        </mxCell>
        <mxCell id="krPjROnrd2UijMS6lK_2-80" value="&lt;font style=&quot;font-size: 15px&quot;&gt;状态&lt;br&gt;待接收&lt;/font&gt;" style="rounded=1;whiteSpace=wrap;html=1;shadow=0;labelBackgroundColor=none;strokeWidth=1;fontFamily=Verdana;fontSize=8;align=center;sketch=1;hachureGap=4;fontSource=https%3A%2F%2Ffonts.googleapis.com%2Fcss%3Ffamily%3DArchitects%2BDaughter;" vertex="1" parent="krPjROnrd2UijMS6lK_2-24">
          <mxGeometry x="52" y="194" width="100" height="60" as="geometry" />
        </mxCell>
        <mxCell id="krPjROnrd2UijMS6lK_2-89" style="edgeStyle=none;rounded=1;sketch=1;hachureGap=4;orthogonalLoop=1;jettySize=auto;html=1;fontFamily=Architects Daughter;fontSource=https%3A%2F%2Ffonts.googleapis.com%2Fcss%3Ffamily%3DArchitects%2BDaughter;fontSize=15;endArrow=open;startSize=14;endSize=14;sourcePerimeterSpacing=8;targetPerimeterSpacing=8;" edge="1" parent="krPjROnrd2UijMS6lK_2-24" source="krPjROnrd2UijMS6lK_2-84" target="krPjROnrd2UijMS6lK_2-88">
          <mxGeometry relative="1" as="geometry" />
        </mxCell>
        <mxCell id="krPjROnrd2UijMS6lK_2-90" value="反馈" style="edgeLabel;html=1;align=center;verticalAlign=middle;resizable=0;points=[];fontSize=15;fontFamily=Architects Daughter;" vertex="1" connectable="0" parent="krPjROnrd2UijMS6lK_2-89">
          <mxGeometry x="0.0164" y="-2" relative="1" as="geometry">
            <mxPoint as="offset" />
          </mxGeometry>
        </mxCell>
        <mxCell id="krPjROnrd2UijMS6lK_2-84" value="&lt;font style=&quot;font-size: 15px&quot;&gt;状态&lt;br&gt;未办理&lt;br&gt;&lt;/font&gt;" style="rounded=1;whiteSpace=wrap;html=1;shadow=0;labelBackgroundColor=none;strokeWidth=1;fontFamily=Verdana;fontSize=8;align=center;sketch=1;hachureGap=4;fontSource=https%3A%2F%2Ffonts.googleapis.com%2Fcss%3Ffamily%3DArchitects%2BDaughter;" vertex="1" parent="krPjROnrd2UijMS6lK_2-24">
          <mxGeometry x="52" y="331" width="100" height="60" as="geometry" />
        </mxCell>
        <mxCell id="krPjROnrd2UijMS6lK_2-88" value="状态&lt;br&gt;已反馈" style="strokeWidth=2;html=1;shape=mxgraph.flowchart.terminator;whiteSpace=wrap;sketch=1;hachureGap=4;fontFamily=Architects Daughter;fontSource=https%3A%2F%2Ffonts.googleapis.com%2Fcss%3Ffamily%3DArchitects%2BDaughter;fontSize=15;fillColor=#B0C7FC;" vertex="1" parent="krPjROnrd2UijMS6lK_2-24">
          <mxGeometry x="52" y="752" width="100" height="60" as="geometry" />
        </mxCell>
        <mxCell id="krPjROnrd2UijMS6lK_2-81" style="edgeStyle=none;rounded=1;sketch=1;hachureGap=4;orthogonalLoop=1;jettySize=auto;html=1;entryX=0;entryY=0.5;entryDx=0;entryDy=0;fontFamily=Architects Daughter;fontSource=https%3A%2F%2Ffonts.googleapis.com%2Fcss%3Ffamily%3DArchitects%2BDaughter;fontSize=15;endArrow=open;startSize=14;endSize=14;sourcePerimeterSpacing=8;targetPerimeterSpacing=8;" edge="1" parent="krPjROnrd2UijMS6lK_2-2" source="krPjROnrd2UijMS6lK_2-77" target="krPjROnrd2UijMS6lK_2-80">
          <mxGeometry relative="1" as="geometry">
            <Array as="points">
              <mxPoint x="335" y="719" />
              <mxPoint x="335" y="394" />
              <mxPoint x="335" y="283" />
            </Array>
          </mxGeometry>
        </mxCell>
        <mxCell id="krPjROnrd2UijMS6lK_2-83" value="发送" style="edgeLabel;html=1;align=center;verticalAlign=middle;resizable=0;points=[];fontSize=15;fontFamily=Architects Daughter;" vertex="1" connectable="0" parent="krPjROnrd2UijMS6lK_2-81">
          <mxGeometry x="0.2002" y="-3" relative="1" as="geometry">
            <mxPoint y="1" as="offset" />
          </mxGeometry>
        </mxCell>
        <mxCell id="krPjROnrd2UijMS6lK_2-91" style="edgeStyle=none;rounded=1;sketch=1;hachureGap=4;orthogonalLoop=1;jettySize=auto;html=1;entryX=1;entryY=0.5;entryDx=0;entryDy=0;entryPerimeter=0;fontFamily=Architects Daughter;fontSource=https%3A%2F%2Ffonts.googleapis.com%2Fcss%3Ffamily%3DArchitects%2BDaughter;fontSize=15;endArrow=open;startSize=14;endSize=14;sourcePerimeterSpacing=8;targetPerimeterSpacing=8;" edge="1" parent="krPjROnrd2UijMS6lK_2-2" source="krPjROnrd2UijMS6lK_2-88" target="krPjROnrd2UijMS6lK_2-87">
          <mxGeometry relative="1" as="geometry">
            <Array as="points">
              <mxPoint x="425" y="942" />
            </Array>
          </mxGeometry>
        </mxCell>
        <mxCell id="krPjROnrd2UijMS6lK_2-92" value="反馈发送" style="edgeLabel;html=1;align=center;verticalAlign=middle;resizable=0;points=[];fontSize=15;fontFamily=Architects Daughter;" vertex="1" connectable="0" parent="krPjROnrd2UijMS6lK_2-91">
          <mxGeometry x="0.3144" relative="1" as="geometry">
            <mxPoint x="1" as="offset" />
          </mxGeometry>
        </mxCell>
        <mxCell id="krPjROnrd2UijMS6lK_2-102" style="edgeStyle=none;rounded=1;sketch=1;hachureGap=4;orthogonalLoop=1;jettySize=auto;html=1;fontFamily=Architects Daughter;fontSource=https%3A%2F%2Ffonts.googleapis.com%2Fcss%3Ffamily%3DArchitects%2BDaughter;fontSize=15;endArrow=open;startSize=14;endSize=14;sourcePerimeterSpacing=8;targetPerimeterSpacing=8;jumpStyle=arc;" edge="1" parent="krPjROnrd2UijMS6lK_2-2" source="krPjROnrd2UijMS6lK_2-87" target="krPjROnrd2UijMS6lK_2-99">
          <mxGeometry relative="1" as="geometry" />
        </mxCell>
      </root>
    </mxGraphModel>
  </diagram>
</mxfile>
